{"asset":{"version":"2.0","generator":"Blockbench 5.0.0-beta.2 glTF exporter"},"scenes":[{"nodes":[1],"name":"blockbench_export"}],"scene":0,"nodes":[{"mesh":1},{"rotation":[0,0.0980171403295606,0,0.9951847266721969],"name":"gradient","mesh":0,"children":[0]}],"bufferViews":[{"buffer":0,"byteOffset":0,"byteLength":5760,"target":34962,"byteStride":12},{"buffer":0,"byteOffset":5760,"byteLength":5760,"target":34962,"byteStride":12},{"buffer":0,"byteOffset":11520,"byteLength":3840,"target":34962,"byteStride":8},{"buffer":0,"byteOffset":15360,"byteLength":1344,"target":34963},{"buffer":0,"byteOffset":16704,"byteLength":1368,"target":34962,"byteStride":12}],"buffers":[{"byteLength":18072,"uri":"data:application/octet-stream;base64,"}],"accessors":[{"bufferView":0,"componentType":5126,"count":480,"max":[50,50,50],"min":[-50,-50,-50],"type":"VEC3"},{"bufferView":1,"componentType":5126,"count":480,"max":[0.9807853102684021,0.9807853102684021,0.9807853102684021],"min":[-0.9807853102684021,-0.9807853102684021,-0.9807853102684021],"type":"VEC3"},{"bufferView":2,"componentType":5126,"count":480,"max":[1,1],"min":[0,0],"type":"VEC2"},{"bufferView":3,"componentType":5123,"count":672,"max":[479],"min":[0],"type":"SCALAR"},{"bufferView":4,"componentType":5126,"count":114,"max":[50,50,50],"min":[-50,-50,-50],"type":"VEC3"}],"materials":[{"pbrMetallicRoughness":{"metallicFactor":0,"roughnessFactor":1,"baseColorTexture":{"index":0}},"alphaMode":"MASK","alphaCutoff":0.05,"doubleSided":true},{"pbrMetallicRoughness":{"metallicFactor":0,"roughnessFactor":1}}],"textures":[{"sampler":0,"source":0,"name":"skybox.png"}],"samplers":[{"magFilter":9728,"minFilter":9728,"wrapS":33071,"wrapT":33071}],"images":[{"mimeType":"image/png","name":"skybox.png","uri":"skybox.png"}],"meshes":[{"primitives":[{"mode":4,"attributes":{"POSITION":0,"NORMAL":1,"TEXCOORD_0":2},"indices":3,"material":0}]},{"primitives":[{"mode":0,"attributes":{"POSITION":4},"material":1}]}]}