{"asset":{"version":"2.0","generator":"Blockbench 4.12.6 glTF exporter"},"scenes":[{"nodes":[4],"name":"blockbench_export"}],"scene":0,"nodes":[{"name":"gradient","mesh":0},{"name":"stars","mesh":1},{"name":"Sky","children":[0,1]},{"name":"Terrain"},{"children":[2,3]}],"bufferViews":[{"buffer":0,"byteOffset":0,"byteLength":5760,"target":34962,"byteStride":12},{"buffer":0,"byteOffset":5760,"byteLength":5760,"target":34962,"byteStride":12},{"buffer":0,"byteOffset":11520,"byteLength":3840,"target":34962,"byteStride":8},{"buffer":0,"byteOffset":15360,"byteLength":1344,"target":34963},{"buffer":0,"byteOffset":16704,"byteLength":5760,"target":34962,"byteStride":12},{"buffer":0,"byteOffset":22464,"byteLength":5760,"target":34962,"byteStride":12},{"buffer":0,"byteOffset":28224,"byteLength":3840,"target":34962,"byteStride":8},{"buffer":0,"byteOffset":32064,"byteLength":1344,"target":34963}],"buffers":[{"byteLength":33408,"uri":"data:application/octet-stream;base64,"}],"accessors":[{"bufferView":0,"componentType":5126,"count":480,"max":[200,200,200],"min":[-200,-200,-200],"type":"VEC3"},{"bufferView":1,"componentType":5126,"count":480,"max":[0.9807853102684021,0.9807853102684021,0.9807853102684021],"min":[-0.9807853102684021,-0.9807853102684021,-0.9807853102684021],"type":"VEC3"},{"bufferView":2,"componentType":5126,"count":480,"max":[0.9986437559127808,0.9645389914512634],"min":[0.9985937476158142,0.847517728805542],"type":"VEC2"},{"bufferView":3,"componentType":5123,"count":672,"max":[479],"min":[0],"type":"SCALAR"},{"bufferView":4,"componentType":5126,"count":480,"max":[199.5,199.5,199.5],"min":[-199.5,-199.5,-199.5],"type":"VEC3"},{"bufferView":5,"componentType":5126,"count":480,"max":[0.9807853102684021,0.9807853102684021,0.9807853102684021],"min":[-0.9807853102684021,-0.9807853102684021,-0.9807853102684021],"type":"VEC3"},{"bufferView":6,"componentType":5126,"count":480,"max":[0.26614487171173096,0.7259933948516846],"min":[0,0.6440602540969849],"type":"VEC2"},{"bufferView":7,"componentType":5123,"count":672,"max":[479],"min":[0],"type":"SCALAR"}],"materials":[{"pbrMetallicRoughness":{"metallicFactor":0,"roughnessFactor":1,"baseColorTexture":{"index":0}},"alphaMode":"MASK","alphaCutoff":0.05,"doubleSided":true}],"textures":[{"sampler":0,"source":0,"name":"Cursors.png"}],"samplers":[{"magFilter":9728,"minFilter":9728,"wrapS":33071,"wrapT":33071}],"images":[{"mimeType":"image/png","name":"Cursors.png","uri":"Cursors.png"}],"meshes":[{"primitives":[{"mode":4,"attributes":{"POSITION":0,"NORMAL":1,"TEXCOORD_0":2},"indices":3,"material":0}]},{"primitives":[{"mode":4,"attributes":{"POSITION":4,"NORMAL":5,"TEXCOORD_0":6},"indices":7,"material":0}]}]}